<svg width="38" height="19" viewBox="0 0 38 19" fill="none" xmlns="http://www.w3.org/2000/svg">
<path d="M16.2699 1.66927C16.0033 2.6026 15.8699 4.46927 16.0033 5.93594C16.4033 9.13594 12.8033 11.2693 8.66993 10.3359C6.40326 9.66927 5.46993 8.6026 5.46993 6.46927C5.60326 2.86927 1.33659 1.53594 0.136593 4.6026C-0.396741 5.93594 0.669926 8.06927 2.66993 10.2026C4.66993 12.0693 6.53659 14.6026 6.93659 15.9359C7.86993 19.1359 30.0033 19.1359 30.9366 15.9359C31.3366 14.6026 33.2033 12.0693 35.2033 10.2026C37.2033 8.06927 38.2699 5.93594 37.7366 4.6026C36.5366 1.53594 32.2699 2.86927 32.4033 6.46927C32.4033 8.6026 31.4699 9.66927 29.2033 10.3359C24.6699 11.4026 21.6033 9.13594 21.6033 4.6026C21.6033 0.602603 17.4699 -1.7974 16.2699 1.66927Z" fill="white"/>
</svg>
