<?xml version="1.0" standalone="no"?>
<!DOCTYPE svg PUBLIC "-//W3C//DTD SVG 20010904//EN"
 "http://www.w3.org/TR/2001/REC-SVG-20010904/DTD/svg10.dtd">
<svg version="1.0" xmlns="http://www.w3.org/2000/svg"
 width="32.000000pt" height="32.000000pt" viewBox="0 0 32.000000 32.000000"
 preserveAspectRatio="xMidYMid meet">

<g transform="translate(0.000000,32.000000) scale(0.100000,-0.100000)"
fill="#000000" stroke="none">
<path d="M135 218 c-2 -7 -3 -21 -2 -32 3 -24 -24 -40 -55 -33 -17 5 -24 13
-24 29 1 27 -31 37 -40 14 -4 -10 4 -26 19 -42 15 -14 29 -33 32 -43 7 -24
173 -24 180 0 3 10 17 29 32 43 15 16 23 32 19 42 -9 23 -41 13 -40 -14 0 -16
-7 -24 -24 -29 -34 -8 -57 9 -57 43 0 30 -31 48 -40 22z"/>
</g>
</svg>
