<?xml version="1.0" encoding="UTF-8"?>
<svg version="1.1" xmlns="http://www.w3.org/2000/svg" width="2359" height="421">
<path d="M0 0 C1.13391678 -0.00101212 1.13391678 -0.00101212 2.29074097 -0.00204468 C14.30429234 0.014962 25.93508925 0.54554899 37.6875 3.25 C38.40035156 3.41097168 39.11320312 3.57194336 39.84765625 3.73779297 C68.02963352 10.39329168 93.67761849 27.06657076 109.39453125 51.63696289 C117.39010514 64.72632719 122.10680311 78.36436988 125.6875 93.25 C125.95868652 94.36157471 125.95868652 94.36157471 126.23535156 95.49560547 C131.46263238 118.11424701 130.36032295 144.6563312 125.6875 167.25 C125.51589355 168.10271484 125.34428711 168.95542969 125.16748047 169.83398438 C122.90308157 180.81803909 119.90066253 191.34036449 115.74707031 201.76782227 C115.45026367 202.54569092 115.15345703 203.32355957 114.84765625 204.125 C114.57574463 204.80304688 114.30383301 205.48109375 114.02368164 206.1796875 C113.42469681 209.86842489 115.14869706 212.44786561 117.16113281 215.44384766 C118.01723145 216.542854 118.01723145 216.542854 118.890625 217.6640625 C119.85572998 218.91449341 119.85572998 218.91449341 120.84033203 220.19018555 C121.87843018 221.5191687 121.87843018 221.5191687 122.9375 222.875 C124.39976194 224.76850919 125.86067382 226.66306165 127.3203125 228.55859375 C128.05540039 229.51233887 128.79048828 230.46608398 129.54785156 231.44873047 C132.69494311 235.5689642 135.75627249 239.74967659 138.8125 243.9375 C144.07285747 251.12969529 149.47216486 258.199733 154.98291016 265.2019043 C155.52608887 265.89324463 156.06926758 266.58458496 156.62890625 267.296875 C157.10013916 267.89338867 157.57137207 268.48990234 158.05688477 269.10449219 C160.33530229 272.10235612 162.4988951 275.18595313 164.6875 278.25 C165.0175 189.15 165.3475 100.05 165.6875 8.25 C226.2875 8.25 226.2875 8.25 234.125 15.375 C240.77428223 24.31584277 240.32897021 35.59301103 240.6875 46.25 C241.63496094 45.12464844 241.63496094 45.12464844 242.6015625 43.9765625 C259.02903453 24.97566139 283.20080592 11.55428307 308.296875 8.49609375 C337.89723109 6.34768081 363.82544191 13.85011939 386.6875 33.25 C406.56655314 50.76661494 418.021136 75.21638526 421.6875 101.25 C421.82542139 104.16124313 421.81831839 107.06783727 421.80775452 109.98190308 C421.80860894 110.84865917 421.80946337 111.71541527 421.81034368 112.6084367 C421.81198762 115.50574331 421.8064949 118.40299171 421.80102539 121.30029297 C421.80074326 123.37996927 421.80090176 125.45964566 421.8014679 127.5393219 C421.80175485 133.18135737 421.79587446 138.82337159 421.78889394 144.46540213 C421.78264356 150.36309292 421.78205527 156.26078419 421.78086853 162.15847778 C421.77776019 173.32493716 421.76955348 184.49138674 421.75951904 195.6578418 C421.74834249 208.37115976 421.74284356 221.08447818 421.73782361 233.79779983 C421.72737047 259.94853864 421.70978063 286.09926877 421.6875 312.25 C414.26346845 312.31977037 406.83950858 312.3729476 399.41521454 312.40543652 C395.96712086 312.42103628 392.51925288 312.44216893 389.07128906 312.47631836 C385.09963765 312.51540455 381.12807495 312.52975629 377.15625 312.54296875 C375.92886108 312.55845261 374.70147217 312.57393646 373.43688965 312.58988953 C365.90988417 312.59135908 359.4292646 312.37562498 353.41015625 307.34765625 C352.86230469 306.67605469 352.31445312 306.00445312 351.75 305.3125 C351.18410156 304.64347656 350.61820313 303.97445313 350.03515625 303.28515625 C347.34786376 299.22695513 347.55940831 295.20406783 347.54946899 290.42951965 C347.54664771 289.74389267 347.54382643 289.05826569 347.54091966 288.35186213 C347.5325879 286.05463164 347.53123657 283.75744944 347.52978516 281.46020508 C347.52511546 279.81234095 347.51997164 278.16447811 347.51438904 276.51661682 C347.50311069 272.96553989 347.49467482 269.41447134 347.48826981 265.86338234 C347.477568 260.2337344 347.45731323 254.60414612 347.43515015 248.97453308 C347.37331247 232.96457686 347.31936115 216.9546231 347.28613281 200.94458008 C347.26770367 192.1038045 347.23865825 183.26312804 347.1981281 174.42242545 C347.17718353 169.75107761 347.16161894 165.07985405 347.15932083 160.4084568 C347.15715049 156.00149305 347.14104223 151.59478729 347.11493111 147.18790245 C347.10782441 145.58410954 347.10559431 143.98028507 347.10903358 142.3764801 C347.14840643 120.4951183 343.65755112 96.59144766 327.6875 80.25 C315.02194208 70.3852406 301.60632447 67.12175552 285.6875 68.25 C272.96194643 70.2101334 261.75206865 76.09514918 253.96484375 86.56640625 C244.73173918 101.27797697 240.55354009 117.96057286 240.52928162 135.23535156 C240.52187465 136.37879044 240.52187465 136.37879044 240.51431805 137.54532909 C240.49906805 140.07709238 240.49061667 142.60883057 240.48217773 145.140625 C240.47258936 146.96444414 240.46257872 148.78826111 240.45217896 150.61207581 C240.42522776 155.5473811 240.40416543 160.48269586 240.38417697 165.4180336 C240.36225681 170.58168497 240.33489771 175.74530749 240.30812073 180.90893555 C240.25827518 190.67991869 240.21330627 200.45091791 240.17009836 210.22193241 C240.1206563 221.34889023 240.06576408 232.47581909 240.01041877 243.60274887 C239.89672371 266.48513887 239.78985766 289.36755667 239.6875 312.25 C225.55254626 312.29688144 211.4176047 312.33193422 197.28258896 312.35362434 C190.71831302 312.36403734 184.15408952 312.37815108 177.58984375 312.40087891 C171.24857318 312.42269595 164.90735289 312.43458729 158.56604767 312.43975449 C156.15329447 312.44343437 153.74054385 312.45062005 151.32781219 312.46146011 C147.93430247 312.47609281 144.54099741 312.47797303 141.14746094 312.47705078 C139.66930405 312.48783661 139.66930405 312.48783661 138.1612854 312.49884033 C123.16058145 312.45506162 109.92031296 309.61727086 98.6875 299.25 C91.88004446 292.32406026 85.77790515 284.80306151 79.6875 277.25 C78.02910134 275.24287264 76.35960227 273.24573497 74.6875 271.25 C71.57332289 272.63866176 69.4500903 274.26933509 67 276.625 C34.94211916 305.53480743 -3.96628 315.87489278 -46.3125 314.25 C-52.13232062 313.79575523 -57.65706954 312.71732282 -63.3125 311.25 C-63.951875 311.08902832 -64.59125 310.92805664 -65.25 310.76220703 C-80.86200003 306.73143024 -96.31025218 300.15476602 -108.3125 289.25 C-109.54226563 288.31220703 -109.54226563 288.31220703 -110.796875 287.35546875 C-125.22930349 275.2761536 -131.88837467 255.91592342 -133.84375 237.765625 C-136.44740472 207.70643129 -126.55900024 177.85699174 -107.3828125 154.70703125 C-106.69960937 153.89621094 -106.01640625 153.08539063 -105.3125 152.25 C-104.67054687 151.44949219 -104.02859375 150.64898437 -103.3671875 149.82421875 C-79.5631993 121.44950278 -40.71021249 110.00018185 -5.1875 106.5625 C18.59911773 105.11356897 42.13038969 107.03611267 65.6875 110.25 C64.56260205 96.42982521 59.36182327 83.46549909 48.6875 74.25 C22.84116275 55.14316467 -10.13922172 56.08835604 -40.54296875 60.33203125 C-50.53948264 61.85413419 -60.16665969 64.05887892 -69.6875 67.5 C-76.04355968 69.6854397 -82.10651889 70.67831099 -88.6015625 68.47265625 C-94.57001722 65.33195255 -97.06504466 60.41259043 -99.3125 54.25 C-100.69057738 48.62382239 -101.36985053 42.86043726 -102.125 37.125 C-102.34149546 35.58050355 -102.55958292 34.03622938 -102.77929688 32.4921875 C-103.30873458 28.74709884 -103.81660455 24.99967117 -104.3125 21.25 C-78.36350129 12.48806119 -52.56362773 4.8026527 -25.3125 1.25 C-24.34751587 1.10860596 -24.34751587 1.10860596 -23.36303711 0.96435547 C-15.61510929 -0.06306516 -7.80189075 0.00625704 0 0 Z M-53.3125 183.25 C-54.02921875 183.88679688 -54.7459375 184.52359375 -55.484375 185.1796875 C-64.21860393 193.35571383 -71.19057266 205.07994083 -71.625 217.3125 C-71.48141742 226.04232068 -68.09352995 233.31047738 -62.09375 239.5390625 C-50.3047131 250.86274268 -38.8826228 251.73537291 -23.1875 251.51953125 C-0.48223459 250.78465101 19.92048682 237.97941242 35.28515625 221.9921875 C48.75836915 206.61300789 60.59268703 186.05144637 61.6875 165.25 C23.75371195 155.10148008 -22.55298931 155.03534091 -53.3125 183.25 Z " fill="#006544" transform="translate(1937.3125,103.75)"/>
<path d="M0 0 C9.06716729 8.51403303 17.03584118 18.0426228 23.67285156 28.57080078 C23.67285156 29.23080078 23.67285156 29.89080078 23.67285156 30.57080078 C22.33447266 31.74072266 22.33447266 31.74072266 20.44628906 33.03955078 C19.75092041 33.52359375 19.05555176 34.00763672 18.33911133 34.50634766 C17.20493774 35.28075195 17.20493774 35.28075195 16.04785156 36.07080078 C14.48091632 37.15336883 12.9145178 38.23671413 11.34863281 39.32080078 C10.56053223 39.86478516 9.77243164 40.40876953 8.96044922 40.96923828 C6.87393665 42.43001976 4.82047225 43.92388479 2.77832031 45.44580078 C-7.88436538 53.3831763 -16.5953575 58.24414716 -30.32714844 56.57080078 C-39.14421591 54.28539526 -45.05787205 47.92440122 -51.20214844 41.57080078 C-67.87849115 24.79750258 -90.0917137 18.37857894 -113.13964844 18.25830078 C-134.60162816 18.23438475 -153.35106093 22.62066241 -170.32714844 36.57080078 C-171.18050781 37.27205078 -172.03386719 37.97330078 -172.91308594 38.69580078 C-194.96061202 57.69059248 -203.80163862 83.62820917 -208.32714844 111.57080078 C-208.4404248 112.27011719 -208.55370117 112.96943359 -208.67041016 113.68994141 C-215.93058287 161.17353548 -215.11601558 222.14517757 -186.20214844 262.53955078 C-171.39610033 281.36438337 -151.35929038 292.81547356 -127.62792969 296.09814453 C-91.20028315 299.95381228 -56.35511068 293.4633333 -27.03540039 270.50195312 C-16.88162136 262.94385469 -16.88162136 262.94385469 -10.65283203 252.75610352 C-10.32754329 249.57466257 -10.51188753 247.1030704 -11.06933594 243.96533203 C-11.24819336 242.90846191 -11.42705078 241.8515918 -11.61132812 240.76269531 C-11.80629883 239.64749512 -12.00126953 238.53229492 -12.20214844 237.38330078 C-20.04961984 189.67893517 -15.64508828 134.69775314 12.98144531 94.19970703 C32.16792901 67.95677476 59.02129043 50.19021088 90.67285156 42.57080078 C91.94 42.25111328 93.20714844 41.93142578 94.51269531 41.60205078 C104.96651734 39.2794091 115.57692484 39.25616336 126.23535156 39.19580078 C126.96953308 39.18785492 127.7037146 39.17990906 128.46014404 39.17172241 C142.93653692 39.05152015 156.8602433 40.99190645 170.73535156 45.25830078 C171.56695801 45.51248779 172.39856445 45.7666748 173.25537109 46.02856445 C205.51150062 56.32943701 233.01810294 80.01687616 248.53149414 109.96069336 C271.86702054 156.95387043 273.17654872 218.02211396 257.11035156 267.50048828 C250.1030557 288.01654573 239.51962162 304.78401177 224.67285156 320.57080078 C223.86654297 321.47378906 223.86654297 321.47378906 223.04394531 322.39501953 C199.61648721 347.58394065 162.83671124 358.27689818 129.54785156 359.49658203 C90.16715987 360.3695207 54.75005917 346.53438167 26.06347656 319.90283203 C23.01761874 316.93162758 20.2713053 313.94176779 17.67285156 310.57080078 C17.67285156 309.91080078 17.67285156 309.25080078 17.67285156 308.57080078 C16.83367187 309.245625 16.83367187 309.245625 15.97753906 309.93408203 C14.24465511 311.32428958 12.50862999 312.71058546 10.77050781 314.09423828 C8.64204096 315.79593814 6.5263631 317.50771733 4.41894531 319.23486328 C-33.70856923 350.22068476 -83.95410254 363.30381077 -132.63525391 358.85546875 C-155.75172104 356.4109013 -178.05248152 350.08389486 -198.32714844 338.57080078 C-199.99583984 337.63300781 -199.99583984 337.63300781 -201.69824219 336.67626953 C-216.36540481 328.03091917 -230.57445732 316.81524286 -241.32714844 303.57080078 C-242.48537109 302.15154297 -242.48537109 302.15154297 -243.66699219 300.70361328 C-275.18491783 261.33999738 -286.00660505 210.33285447 -285.71826172 160.84130859 C-285.70214956 157.57102802 -285.71825187 154.30198257 -285.73730469 151.03173828 C-285.7752961 113.0172431 -279.19234218 73.03128845 -260.32714844 39.57080078 C-259.74191406 38.50087891 -259.15667969 37.43095703 -258.55371094 36.32861328 C-238.20286095 0.13909272 -204.04331891 -26.70215058 -164.07324219 -37.96435547 C-105.75174715 -53.46760682 -44.7702458 -40.79436161 0 0 Z M80.57519531 115.04736328 C65.64076675 135.20063611 61.59497899 162.05688703 61.46972656 186.58251953 C61.46275757 187.5056192 61.45578857 188.42871887 61.4486084 189.37979126 C61.43132272 192.33934138 61.42488996 195.29870231 61.42285156 198.25830078 C61.42184448 199.2670224 61.4208374 200.27574402 61.4197998 201.31503296 C61.42969996 215.94702023 61.75842226 230.18258997 64.67285156 244.57080078 C64.80675293 245.29283691 64.9406543 246.01487305 65.07861328 246.75878906 C67.94603387 261.90919676 74.12163977 276.20299826 84.67285156 287.57080078 C85.21296875 288.20115234 85.75308594 288.83150391 86.30957031 289.48095703 C95.91268451 300.06065911 109.27023547 304.53524624 123.12597656 305.91455078 C138.86339003 306.37070769 152.14489721 301.29096057 164.00488281 291.13720703 C186.65998184 269.34452759 190.20992757 235.65781119 190.79785156 205.85986328 C191.1501139 179.42351261 190.21372759 151.82904991 178.67285156 127.57080078 C178.18300781 126.53697266 177.69316406 125.50314453 177.18847656 124.43798828 C169.67755753 110.19698834 157.8063962 99.95240057 142.67285156 94.57080078 C138.65444877 93.45431607 134.82990354 92.83957569 130.67285156 92.57080078 C129.85816406 92.50248047 129.04347656 92.43416016 128.20410156 92.36376953 C108.7098549 91.50931391 92.80389979 100.60974943 80.57519531 115.04736328 Z " fill="#000000" transform="translate(1213.3271484375,57.42919921875)"/>
<path d="M0 0 C1.11689713 -0.00350464 2.23379425 -0.00700928 3.38453674 -0.01062012 C7.06086534 -0.01938822 10.73699965 -0.01360031 14.41333008 -0.00683594 C16.99335263 -0.00818523 19.57337492 -0.01012796 22.15339661 -0.01263428 C27.56257786 -0.01557995 32.97168744 -0.01150418 38.38085938 -0.00195312 C44.57396465 0.00885812 50.76693743 0.00545628 56.96003932 -0.00560594 C62.97372148 -0.01590598 68.98734071 -0.01464772 75.00103188 -0.00884247 C77.53111096 -0.00752378 80.0611935 -0.00908994 82.59126854 -0.01380157 C125.57411565 -0.07621878 169.03383927 4.42439956 201.74536133 35.07128906 C220.34202423 54.60955515 228.06783556 81.90940227 227.64379883 108.45410156 C226.24089313 134.96163558 216.51772407 157.52256039 196.85864258 175.69628906 C191.45488502 180.17538481 185.60705445 183.82583803 179.49536133 187.25878906 C182.0634892 188.97087431 184.62847778 190.34286122 187.38183594 191.71972656 C212.26692387 204.33733991 231.94160448 226.33952553 241.16333008 252.79785156 C242.48185066 256.91088287 243.52852197 261.04944915 244.49536133 265.25878906 C244.73899414 266.30679687 244.98262695 267.35480469 245.23364258 268.43457031 C250.79167684 297.58589289 244.45974987 329.71007206 228.36645508 354.54394531 C208.36233577 382.2777422 177.40848603 396.67511823 144.38598633 402.13378906 C142.59000775 402.41050448 140.79312257 402.68140233 138.99536133 402.94628906 C138.19001953 403.06576904 137.38467773 403.18524902 136.55493164 403.30834961 C123.34057761 405.11518356 110.04328524 405.40831529 96.72583008 405.37231445 C95.22595217 405.37203137 93.72607412 405.37219266 92.22619629 405.37275696 C88.21073035 405.37304023 84.19529516 405.36722061 80.17983627 405.360183 C75.96250317 405.35387013 71.74516913 405.35333946 67.52783203 405.35215759 C59.56684874 405.34906742 51.60587941 405.34088568 43.64490223 405.3308081 C34.57094518 405.31957453 25.49698742 405.31411838 16.42302513 405.30911267 C-2.21953735 405.29870076 -20.86208688 405.2811468 -39.50463867 405.25878906 C-39.59618386 356.874857 -39.66667216 308.49093368 -39.70889999 260.10693205 C-39.71390285 254.39542526 -39.71908013 248.68391864 -39.72436523 242.97241211 C-39.72541448 241.83534868 -39.72646372 240.69828524 -39.72754475 239.52676534 C-39.74495242 221.1129183 -39.77649212 202.69912119 -39.81324986 184.28530378 C-39.85064918 165.39258611 -39.8728724 146.4998946 -39.88099265 127.60714144 C-39.8864825 115.94825754 -39.90382501 104.28951476 -39.93630454 92.6306743 C-39.95743995 84.63697083 -39.9638409 76.64334038 -39.95864418 68.649611 C-39.9560809 64.03686727 -39.96002453 59.42437023 -39.98146057 54.8116703 C-40.00095197 50.58655284 -40.00189196 46.36184753 -39.98823425 42.13671093 C-39.98654671 40.61030764 -39.99159908 39.08387845 -40.0041714 37.557526 C-40.09414991 25.95664666 -38.50539609 17.68512996 -30.41870117 9.04785156 C-21.54005871 0.74903881 -11.73250974 -0.04582744 0 0 Z M34.49536133 55.25878906 C34.49536133 91.22878906 34.49536133 127.19878906 34.49536133 164.25878906 C51.38723633 164.35160156 51.38723633 164.35160156 68.62036133 164.44628906 C73.91091553 164.48725708 73.91091553 164.48725708 79.30834961 164.52905273 C82.53074212 164.53909946 82.53074212 164.53909946 85.75314331 164.54512024 C87.16422381 164.54966134 88.57529432 164.56007202 89.98629761 164.57551575 C108.31087169 164.76567137 124.35422909 161.64533473 138.49536133 149.25878906 C149.75193037 137.16132182 153.04183224 121.91733875 152.77661133 105.86035156 C152.16853062 91.46708111 146.98183293 78.27919526 136.49536133 68.25878906 C122.67912579 56.73194901 104.42071374 55.97844878 87.22973633 55.84472656 C85.87181546 55.82773984 84.51390479 55.8099177 83.15600586 55.79125977 C78.18590749 55.72870576 73.21561791 55.68216641 68.24536133 55.63378906 C51.53911133 55.44816406 51.53911133 55.44816406 34.49536133 55.25878906 Z M34.49536133 221.25878906 C34.49536133 263.82878906 34.49536133 306.39878906 34.49536133 350.25878906 C50.64541055 350.25878906 66.77989162 350.23942165 82.92553711 349.99633789 C85.31967122 349.9627722 87.71389053 349.93484322 90.1081543 349.91235352 C116.19359797 349.86221491 116.19359797 349.86221491 140.49536133 341.25878906 C141.4312207 340.74316406 142.36708008 340.22753906 143.33129883 339.69628906 C156.84886671 331.69685163 164.53826914 319.63940441 168.40258789 304.61743164 C172.91586548 285.07444098 170.47973909 265.98702387 159.87036133 248.82128906 C149.59108955 234.14392091 135.81724815 225.93943008 118.49536133 222.25878906 C113.512357 221.42705342 108.67357414 221.11920857 103.63232422 221.14526367 C102.86824218 221.14514314 102.10416014 221.1450226 101.3169241 221.14489841 C98.86725797 221.14563905 96.41766992 221.1532282 93.96801758 221.16113281 C92.44616736 221.16260487 90.92431664 221.16362395 89.40246582 221.16418457 C83.78758989 221.16940692 78.17272482 221.18336819 72.55786133 221.19628906 C53.71692383 221.22722656 53.71692383 221.22722656 34.49536133 221.25878906 Z " fill="#006544" transform="translate(1542.504638671875,10.7412109375)"/>
<path d="M0 0 C0.95744867 -0.00170885 1.91489735 -0.0034177 2.90135962 -0.00517833 C6.09964561 -0.00846444 9.29772037 0.00251607 12.49598694 0.01345825 C14.79255671 0.01402256 17.08912685 0.01370543 19.38569641 0.01257324 C25.61445373 0.01199948 31.84313401 0.02375775 38.07187343 0.03772116 C44.58348497 0.05022447 51.09509828 0.0513987 57.60671997 0.05377197 C68.5341784 0.0592817 79.46160838 0.07177376 90.38905334 0.08963013 C101.64230712 0.10799973 112.89555322 0.12215094 124.14881897 0.13064575 C124.84294987 0.1311712 125.53708078 0.13169665 126.25224596 0.13223802 C129.73464007 0.13484817 133.21703424 0.13737557 136.69942844 0.13986182 C165.57052018 0.16058134 194.44156946 0.19744409 223.31263733 0.24050903 C223.31263733 22.02050903 223.31263733 43.80050903 223.31263733 66.24050903 C162.26263733 66.24050903 101.21263733 66.24050903 38.31263733 66.24050903 C38.31263733 99.57050903 38.31263733 132.90050903 38.31263733 167.24050903 C88.80263733 167.24050903 139.29263733 167.24050903 191.31263733 167.24050903 C191.31263733 188.69050903 191.31263733 210.14050903 191.31263733 232.24050903 C140.82263733 232.24050903 90.33263733 232.24050903 38.31263733 232.24050903 C38.31263733 290.32050903 38.31263733 348.40050903 38.31263733 408.24050903 C13.89263733 408.24050903 -10.52736267 408.24050903 -35.68736267 408.24050903 C-35.77553572 359.47436834 -35.84939575 310.70830279 -35.89162399 261.94210521 C-35.89662685 256.1855346 -35.90180413 250.42896416 -35.90708923 244.6723938 C-35.90813848 243.52635852 -35.90918772 242.38032324 -35.91026875 241.19955962 C-35.9276766 222.64021595 -35.95921641 204.08092181 -35.99597386 185.52160753 C-36.03337266 166.4797282 -36.05559629 147.43787482 -36.06371665 128.39596027 C-36.06920661 116.64494846 -36.0865497 104.89407666 -36.11902854 93.14310794 C-36.14016331 85.08633025 -36.14656505 77.029625 -36.14136818 68.9728216 C-36.13880481 64.32362384 -36.14274966 59.67467082 -36.16418457 55.02551651 C-36.18367456 50.76709245 -36.18461686 46.50907734 -36.17095825 42.25063431 C-36.16927058 40.71211811 -36.17432412 39.17357621 -36.1868954 37.63511045 C-36.27651834 25.98750247 -34.70683935 17.71546052 -26.60923767 9.02957153 C-18.71399489 1.67993496 -10.47802509 -0.06888014 0 0 Z " fill="#000000" transform="translate(35.68736267089844,3.759490966796875)"/>
<path d="M0 0 C0.73445343 -0.0080365 1.46890686 -0.016073 2.22561646 -0.02435303 C27.98050385 -0.23785387 52.74421607 5.95133213 72.4375 23.375 C73.06140625 23.90480469 73.6853125 24.43460938 74.328125 24.98046875 C86.54154734 36.12109047 94.33513416 55.0494869 95.4375 71.375 C96.56595982 96.63078074 93.46551679 120.93495956 76 140.625 C74.48737154 142.21617366 72.96696309 143.80000123 71.4375 145.375 C70.53451172 146.38820312 70.53451172 146.38820312 69.61328125 147.421875 C41.52829738 177.88281195 -10.6155284 186.12131755 -49.5625 188.375 C-57.56436155 188.63553595 -65.56019095 188.59160887 -73.5625 188.375 C-70.33259355 207.32378449 -66.73230322 224.02673053 -54.5625 239.375 C-54.12808594 239.9834375 -53.69367188 240.591875 -53.24609375 241.21875 C-43.81751243 253.6025583 -27.62192552 260.23498465 -12.796875 262.8671875 C19.07478089 267.16636701 47.6969251 255.78746694 74.64453125 239.94140625 C80.78843651 236.49566358 87.99573133 236.2185196 94.79296875 237.98828125 C104.7526765 242.36130574 108.65007127 253.46932558 112.8125 262.75 C113.63041016 264.53083984 113.63041016 264.53083984 114.46484375 266.34765625 C118.4375 275.07953477 118.4375 275.07953477 118.4375 277.375 C116.87475586 278.60498047 116.87475586 278.60498047 114.65234375 279.9921875 C113.823396 280.51079346 112.99444824 281.02939941 112.14038086 281.5637207 C111.22780518 282.12019287 110.31522949 282.67666504 109.375 283.25 C108.43342041 283.82645264 107.49184082 284.40290527 106.52172852 284.99682617 C58.95680972 313.74140419 5.31043304 329.0152502 -50.109375 315.5625 C-81.66953302 307.34631111 -108.19856031 289.90523469 -125.17382812 261.60839844 C-137.06496102 240.89579903 -143.39753714 217.07712588 -145.5625 193.375 C-145.67207031 192.33988281 -145.78164063 191.30476562 -145.89453125 190.23828125 C-150.36993935 140.77010367 -140.86342118 88.01771407 -108.68359375 48.875 C-88.99333972 25.66733411 -64.99436924 10.7464188 -35.5625 3.375 C-34.87623535 3.19565918 -34.1899707 3.01631836 -33.48291016 2.83154297 C-22.4838375 0.07698784 -11.27260863 0.06866202 0 0 Z M-43.5625 65.375 C-44.59375 66.138125 -45.625 66.90125 -46.6875 67.6875 C-62.14140017 82.13353711 -69.73982946 101.54147076 -73.9375 121.8125 C-74.18935059 123.0183374 -74.18935059 123.0183374 -74.44628906 124.24853516 C-75.54205172 129.99833077 -75.742852 135.53051623 -75.5625 141.375 C-54.15482726 142.24483772 -32.80339072 139.57176114 -12.5625 132.375 C-11.90717285 132.14554687 -11.2518457 131.91609375 -10.57666016 131.6796875 C5.73260239 125.86664312 20.5089192 117.31014763 28.4375 101.375 C32.84275884 91.0602476 32.19774434 80.79624861 28.4375 70.375 C23.89170972 61.384437 17.48988093 57.07925531 8.5 53.0625 C-10.32688655 48.83605608 -28.51451715 53.57319992 -43.5625 65.375 Z " fill="#000000" transform="translate(813.5625,96.625)"/>
<path d="M0 0 C2.30582442 0.00315136 4.61034924 -0.02036856 6.91601562 -0.0456543 C33.20119422 -0.15797814 58.70454762 6.89257442 77.94335938 25.62426758 C94.70269015 43.28798046 99.25640637 65.20692034 98.82226562 88.82739258 C98.02500218 111.86431987 88.67571783 131.18924951 72.57226562 147.31567383 C71.86457031 148.0349707 71.156875 148.75426758 70.42773438 149.49536133 C35.78234376 182.48466252 -23.31738182 189.41005964 -68.66894531 188.36328125 C-69.2493457 188.3475708 -69.82974609 188.33186035 -70.42773438 188.31567383 C-66.64277835 212.15864959 -60.48262033 235.08710061 -40.25976562 250.43286133 C-20.75959227 263.39711451 2.3142691 266.18139485 25.0703125 261.86206055 C39.02522679 258.87960328 52.41176863 253.93305492 65.00537109 247.2487793 C71.92213434 243.70566771 78.72621569 242.31744465 86.32226562 244.44067383 C91.74513905 246.28279495 95.9529193 249.7778501 98.66210938 254.77661133 C99.29294326 256.07413702 99.90832974 257.37926268 100.50976562 258.69067383 C100.84041016 259.3809668 101.17105469 260.07125977 101.51171875 260.7824707 C102.54693436 262.95346572 103.56064632 265.13359792 104.57226562 267.31567383 C105.26026644 268.77698884 105.94905692 270.23793236 106.63867188 271.69848633 C108.30062032 275.22966409 109.94196924 278.76977918 111.57226562 282.31567383 C108.90416033 285.16601532 106.39286135 287.18742884 102.96679688 289.05004883 C102.07468506 289.53771729 101.18257324 290.02538574 100.26342773 290.52783203 C99.31346924 291.03531982 98.36351074 291.54280762 97.38476562 292.06567383 C96.39806885 292.59572021 95.41137207 293.1257666 94.39477539 293.671875 C48.70150825 318.02855627 -3.92649072 328.39046653 -54.61523438 313.62817383 C-85.63031561 304.0483891 -110.23000681 284.07867344 -125.42773438 255.31567383 C-148.77621673 209.95491745 -149.24414418 150.03485082 -134.29077148 101.99316406 C-131.36358876 93.10897569 -127.71881123 84.62209569 -123.42773438 76.31567383 C-122.91919922 75.32954102 -122.91919922 75.32954102 -122.40039062 74.32348633 C-117.30108137 64.57315874 -111.53449148 55.71771189 -104.42773438 47.31567383 C-103.99203125 46.80020996 -103.55632812 46.28474609 -103.10742188 45.75366211 C-77.10644452 15.40968525 -39.62465353 -0.11266487 0 0 Z M-40.42773438 65.31567383 C-41.04003906 65.76426758 -41.65234375 66.21286133 -42.28320312 66.67504883 C-60.77981848 81.06600814 -69.51269104 108.01327876 -72.42773438 130.31567383 C-72.61957863 134.00242002 -72.63853672 137.63053645 -72.42773438 141.31567383 C-40.53178374 142.59863944 -4.57581778 136.44119847 20.94726562 116.00317383 C28.65611245 108.79955798 33.29739531 99.76961044 34.57226562 89.31567383 C34.85979269 79.47724782 32.60865718 70.68175713 26.32226562 63.00317383 C19.21686175 55.47175002 10.99799797 52.10517796 0.75585938 51.35473633 C-14.80431192 51.16381398 -28.27269026 55.7298131 -40.42773438 65.31567383 Z " fill="#000000" transform="translate(560.427734375,96.684326171875)"/>
<path d="M0 0 C-1.3596837 3.69287611 -3.0363541 6.84435873 -5.16796875 10.1484375 C-6.1266687 11.64080933 -6.1266687 11.64080933 -7.10473633 13.16333008 C-8.13570435 14.75310669 -8.13570435 14.75310669 -9.1875 16.375 C-9.89350342 17.47030029 -10.59950684 18.56560059 -11.3269043 19.6940918 C-13.17542944 22.56045659 -15.02986563 25.42294191 -16.88659668 28.28399658 C-17.98294822 29.97371939 -19.07791099 31.66434301 -20.17285156 33.35498047 C-22.21662758 36.50929929 -24.26350695 39.66156796 -26.3125 42.8125 C-26.93987061 43.77784668 -27.56724121 44.74319336 -28.21362305 45.73779297 C-29.09207886 47.08381592 -29.09207886 47.08381592 -29.98828125 48.45703125 C-30.75458862 49.6322937 -30.75458862 49.6322937 -31.53637695 50.83129883 C-32.96060988 52.94163429 -34.45407243 54.97760564 -36 57 C-41.35777893 55.265177 -46.55643986 53.21723782 -51.78125 51.12109375 C-64.58828408 46.66039135 -80.83539226 47.77559694 -93.05078125 53.40625 C-109.63681548 62.34205497 -118.21153101 76.54220471 -123.9921875 93.84375 C-127.24577064 106.04681315 -127.30436131 118.41719384 -127.31884766 130.93896484 C-127.32816625 132.80307948 -127.33833773 134.66719002 -127.34928894 136.53129578 C-127.37638551 141.54889311 -127.39167741 146.56646269 -127.40471697 151.5841136 C-127.42043737 156.84383768 -127.44719878 162.10350583 -127.4727478 167.3631897 C-127.51937882 177.30396428 -127.55619841 187.24474958 -127.58942068 197.18557703 C-127.62775337 208.51099305 -127.67713404 219.83635266 -127.72740483 231.16172099 C-127.83049132 254.44111071 -127.91836886 277.72052448 -128 301 C-152.75 301 -177.5 301 -203 301 C-203 200.02 -203 99.04 -203 -5 C-146 -5 -146 -5 -136 0 C-129.49511896 7.43414976 -127.72305663 13.08866782 -127.375 22.8125 C-127.33632813 23.69615234 -127.29765625 24.57980469 -127.2578125 25.49023438 C-127.16399216 27.65982972 -127.08092674 29.82988547 -127 32 C-126.62230469 31.12859375 -126.24460937 30.2571875 -125.85546875 29.359375 C-118.34439068 13.10589459 -106.88057175 1.51141937 -89.92163086 -5 C-63.78485582 -14.38358882 -24.92861303 -13.83506145 0 0 Z " fill="#000000" transform="translate(456,111)"/>
<path d="M0 0 C4.51334264 2.13789915 6.94285326 4.452623 9 9 C10.43781964 13.977068 10.00101079 18.26945507 8 23 C5.5 26 5.5 26 3 28 C2.34 28 1.68 28 1 28 C7.82058701 40.60775174 15.63117135 47.94388274 29.27734375 52.8125 C41.47553692 56.08352387 54.58446279 54.49074719 65.671875 48.57421875 C69.88923333 45.90735981 73.17082288 43.18226183 76 39 C75.34 38.236875 74.68 37.47375 74 36.6875 C70.99043073 32.16239763 71.23025177 27.22495766 72 22 C74.15837579 17.52336873 76.44970553 15.01059523 81 13 C86.26677507 11.73207267 89.97395535 11.95235218 95 14 C98.86867377 17.26688008 101.61279931 20.27158583 102.3359375 25.3671875 C102.44290234 32.23433016 101.06001557 35.71331661 96.3125 40.8125 C92.71458764 42.66007662 88.98564084 42.72028857 85 43 C84.63648438 44.16789062 84.27296875 45.33578125 83.8984375 46.5390625 C81.76523869 52.9336573 79.11798389 59.11510158 76.49414062 65.31933594 C75.63034152 67.3623664 74.77179318 69.40754048 73.9140625 71.453125 C70.73065294 79.0249791 67.45494575 86.54727244 64 94 C62.68359375 93.56119792 61.3671875 93.12239583 60.05078125 92.68359375 C59.22529785 92.4088623 58.39981445 92.13413086 57.54931641 91.85107422 C55.96459365 91.32202389 54.38076065 90.79029086 52.79833984 90.25439453 C43.77556878 87.20820114 34.78337404 84.55349263 25.4375 82.6875 C24.64174561 82.52838135 23.84599121 82.3692627 23.02612305 82.20532227 C-8.0820009 76.31439353 -41.10337689 80.35330503 -70.09375 92.86328125 C-73 94 -73 94 -76 94 C-78.66993758 87.68314294 -81.33913178 81.36597214 -84.0078125 75.04858398 C-84.91551933 72.90007433 -85.82339553 70.75163622 -86.73144531 68.60327148 C-88.03755648 65.51304676 -89.34305588 62.42256421 -90.6484375 59.33203125 C-91.05371674 58.37351761 -91.45899597 57.41500397 -91.8765564 56.42744446 C-92.25679962 55.52688828 -92.63704285 54.62633209 -93.02880859 53.69848633 C-93.36190033 52.91016922 -93.69499207 52.12185211 -94.03817749 51.30964661 C-95 49 -95 49 -95.88491821 46.2766571 C-96.2528952 45.52536026 -96.62087219 44.77406342 -97 44 C-98.97159457 43.418218 -100.95205161 42.84744361 -102.96875 42.44921875 C-106.84251981 41.59251966 -109.25647278 39.90285448 -111.75 36.875 C-114.1033065 31.46239505 -114.54955581 26.86238357 -112.875 21.1875 C-109.96779741 16.24525559 -107.10216929 14.10607129 -101.625 12.625 C-97.19459393 11.82414716 -94.15395668 12.04058647 -90 14 C-85.74928411 17.91488055 -83.26330627 21.31427609 -82.6875 27.1875 C-83.03033283 31.37006048 -84.14249094 33.61099036 -86.3203125 37.10546875 C-87.21368821 39.00819087 -87.21368821 39.00819087 -86.40234375 41.015625 C-81.18377941 48.40011158 -72.05666721 51.59008731 -63.6171875 53.5546875 C-50.0189771 55.86841285 -36.26637584 52.96088001 -25 45 C-19.54437786 40.04867907 -15.93253839 34.72040049 -13 28 C-13.93779297 27.56494141 -13.93779297 27.56494141 -14.89453125 27.12109375 C-18.44106043 25.23268211 -19.75395916 22.73812251 -21 19 C-21.54225459 14.33305478 -21.4698456 10.92228952 -19.3125 6.6875 C-18.1678125 5.3571875 -18.1678125 5.3571875 -17 4 C-16.34 3.21625 -15.68 2.4325 -15 1.625 C-10.1728451 -0.98970891 -5.36162643 -0.71924257 0 0 Z " fill="#000000" transform="translate(1345,0)"/>
</svg>
